<?xml version="1.0" standalone="no"?>
<!DOCTYPE svg PUBLIC "-//W3C//DTD SVG 20010904//EN"
 "http://www.w3.org/TR/2001/REC-SVG-20010904/DTD/svg10.dtd">
<svg version="1.0" xmlns="http://www.w3.org/2000/svg"
 width="445.000000pt" height="324.000000pt" viewBox="0 0 445.000000 324.000000"
 preserveAspectRatio="xMidYMid meet">

<g transform="translate(0.000000,324.000000) scale(0.100000,-0.100000)"
fill="#000000" stroke="none">
<path d="M875 3161 c-82 -20 -136 -95 -136 -187 0 -88 38 -153 136 -234 91
-74 164 -144 186 -179 l15 -23 29 46 c16 25 58 69 94 98 158 125 211 197 211
288 -1 124 -111 219 -221 190 -24 -7 -55 -27 -79 -51 l-39 -40 -36 40 c-22 24
-52 45 -73 51 -41 11 -44 11 -87 1z"/>
<path d="M230 2878 c-109 -55 -120 -197 -22 -278 66 -54 150 -49 210 13 80 83
66 205 -31 262 -54 31 -99 32 -157 3z"/>
<path d="M2545 2693 c-278 -16 -583 -161 -806 -384 l-97 -97 -68 46 c-86 57
-189 105 -290 134 -69 20 -101 23 -249 22 -159 0 -175 -2 -255 -28 -240 -80
-389 -204 -485 -401 -59 -123 -78 -205 -78 -340 0 -307 173 -608 574 -1000
164 -160 282 -263 417 -363 152 -112 382 -245 398 -229 10 10 -30 154 -66 240
-43 102 -98 170 -264 326 -423 394 -631 698 -666 969 -32 248 105 458 345 527
80 24 254 16 339 -14 134 -47 287 -156 383 -273 80 -96 112 -120 173 -126 85
-8 140 39 193 165 67 158 178 293 294 356 69 37 191 67 275 67 167 0 322 -101
404 -262 144 -284 -10 -707 -392 -1078 -168 -163 -363 -306 -599 -438 -181
-102 -201 -116 -223 -164 -41 -84 -23 -176 49 -246 69 -67 163 -68 294 -3 330
164 696 422 931 656 254 253 417 529 475 803 18 81 20 121 16 242 -6 167 -19
223 -83 359 -55 117 -112 198 -200 282 -188 179 -449 268 -739 252z"/>
<path d="M3866 2026 c-80 -30 -126 -97 -126 -185 0 -98 38 -154 179 -266 61
-48 117 -100 131 -124 28 -46 36 -50 45 -20 11 32 62 86 140 145 139 104 181
173 173 284 -3 48 -10 67 -35 97 -43 54 -84 75 -144 75 -58 -1 -97 -22 -133
-71 l-24 -32 -17 28 c-37 64 -120 94 -189 69z"/>
<path d="M1285 1555 c-5 -2 -22 -6 -37 -9 -39 -9 -98 -64 -119 -111 -24 -53
-24 -147 0 -201 27 -59 71 -104 188 -195 71 -55 115 -97 136 -130 16 -27 31
-49 33 -49 1 0 14 20 28 44 15 25 60 72 104 107 187 150 232 214 232 327 0
127 -80 216 -195 216 -62 0 -107 -23 -144 -74 l-28 -39 -32 39 c-18 22 -44 46
-59 54 -29 14 -90 27 -107 21z"/>
</g>
</svg>
