<?xml version="1.0" standalone="no"?>
<!DOCTYPE svg PUBLIC "-//W3C//DTD SVG 20010904//EN"
 "http://www.w3.org/TR/2001/REC-SVG-20010904/DTD/svg10.dtd">
<svg version="1.0" xmlns="http://www.w3.org/2000/svg"
 width="1024.000000pt" height="1024.000000pt" viewBox="0 0 1024.000000 1024.000000"
 preserveAspectRatio="xMidYMid meet">

<g transform="translate(0.000000,1024.000000) scale(0.100000,-0.100000)"
fill="#000000" stroke="none">
<path d="M4826 7259 c-25 -20 -28 -20 -45 -5 -26 24 -74 20 -99 -7 -42 -45
-21 -104 57 -161 27 -20 51 -42 53 -48 6 -16 115 78 134 114 26 50 16 91 -27
113 -36 19 -41 19 -73 -6z"/>
<path d="M4440 7150 c-41 -41 -13 -110 44 -110 40 0 66 26 66 67 0 57 -69 84
-110 43z"/>
<path d="M5298 7061 c-74 -24 -140 -62 -209 -122 l-56 -48 -39 24 c-101 60
-247 71 -352 25 -70 -30 -146 -113 -167 -182 -43 -146 7 -280 171 -456 112
-122 293 -262 358 -278 26 -6 28 -5 21 17 -23 77 -57 131 -125 195 -162 153
-260 295 -276 400 -24 162 135 263 296 188 31 -14 84 -54 122 -90 56 -54 72
-64 90 -59 35 11 47 24 78 86 49 96 130 149 229 149 115 0 191 -93 178 -217
-15 -146 -154 -317 -372 -458 -66 -43 -126 -85 -132 -94 -22 -26 -16 -79 13
-108 36 -36 84 -27 187 33 353 204 527 430 516 670 -7 136 -82 250 -207 311
-50 24 -70 28 -162 30 -81 2 -118 -1 -162 -16z"/>
<path d="M4840 6600 c-24 -24 -34 -62 -25 -97 6 -27 55 -78 123 -130 l32 -26
63 54 c77 67 85 76 93 115 6 34 -8 70 -35 91 -22 17 -72 16 -99 -3 -20 -14
-24 -14 -44 0 -31 22 -84 20 -108 -4z"/>
<path d="M6111 6393 c-68 -34 -107 -138 -81 -217 16 -51 50 -88 157 -173 51
-41 100 -87 108 -103 19 -36 28 -38 43 -6 6 13 39 48 73 77 173 149 198 183
199 267 0 124 -115 206 -217 154 -22 -12 -47 -32 -56 -45 l-16 -25 -44 44
c-39 39 -50 44 -88 44 -24 0 -59 -8 -78 -17z"/>
<path d="M4173 5960 c-53 -21 -53 -25 -53 -619 l0 -551 29 -32 c25 -28 36 -33
76 -33 40 0 51 5 76 33 l29 32 0 178 1 177 91 -100 c51 -55 140 -148 198 -207
102 -104 108 -108 149 -108 56 0 101 41 101 93 0 42 -9 54 -171 228 l-117 125
134 138 c74 76 137 149 140 162 18 73 -49 138 -123 119 -18 -4 -98 -76 -215
-193 l-188 -186 0 348 0 348 -29 29 c-31 31 -81 38 -128 19z"/>
<path d="M6791 5957 c-51 -30 -50 -23 -51 -607 0 -523 1 -546 20 -577 25 -42
85 -62 130 -43 57 23 60 37 60 232 0 98 2 178 5 178 6 0 102 -101 264 -277 62
-67 122 -125 134 -129 87 -29 168 46 135 125 -7 16 -71 94 -143 171 -71 78
-130 145 -130 150 0 5 60 72 133 149 119 127 132 144 132 177 0 53 -44 94
-101 94 -42 0 -46 -3 -236 -192 l-193 -192 0 346 c0 347 0 347 -23 373 -27 32
-98 43 -136 22z"/>
<path d="M2728 5944 c-35 -19 -48 -43 -48 -91 0 -88 50 -113 227 -113 l128 0
0 -473 c0 -425 2 -475 17 -498 38 -58 127 -62 172 -8 l26 31 0 479 0 479 146
0 146 0 30 30 c28 28 30 35 26 82 -4 40 -12 57 -32 75 l-27 23 -392 0 c-326
-1 -397 -3 -419 -16z"/>
<path d="M4929 5937 c-42 -28 -58 -80 -40 -126 22 -53 44 -59 202 -63 l144 -3
2 -475 c2 -335 6 -481 14 -497 17 -32 74 -56 114 -49 18 4 44 18 59 33 l26 26
2 481 3 481 147 3 c146 3 147 3 177 31 34 32 41 78 19 126 -24 54 -34 55 -451
55 -383 0 -384 0 -418 -23z"/>
<path d="M3725 5917 c-63 -63 -54 -153 17 -197 67 -40 144 -17 178 55 42 88
-18 175 -121 175 -33 0 -47 -6 -74 -33z"/>
<path d="M5988 5591 c-155 -50 -263 -170 -297 -329 -52 -247 109 -496 349
-542 90 -17 207 10 265 62 l34 29 16 -30 c23 -45 69 -66 115 -52 77 23 75 8
78 425 2 282 0 377 -10 394 -15 29 -58 52 -97 52 -32 0 -91 -42 -91 -66 0 -9
-15 -4 -47 17 -96 60 -207 74 -315 40z m227 -200 c87 -41 117 -92 123 -214 6
-109 -12 -162 -71 -212 -88 -75 -201 -73 -291 7 -55 48 -78 103 -78 189 0 105
49 195 126 230 53 24 139 24 191 0z"/>
<path d="M3748 5583 c-14 -9 -31 -27 -37 -40 -16 -34 -15 -733 0 -767 7 -14
27 -32 46 -41 47 -23 95 -13 128 27 l26 30 -3 375 -3 375 -33 29 c-37 33 -82
38 -124 12z"/>
<path d="M6314 4556 c-53 -23 -55 -39 -52 -420 l3 -348 28 -24 c36 -31 78 -31
114 0 l28 24 3 149 c3 140 5 150 28 181 65 84 171 82 225 -5 21 -33 24 -53 29
-186 5 -141 6 -150 29 -168 34 -27 86 -25 117 6 l26 26 -4 162 c-3 153 -5 165
-31 222 -16 33 -40 73 -55 88 -77 81 -213 105 -309 55 l-51 -26 -6 21 c-3 12
-6 64 -6 115 0 79 -3 95 -20 112 -11 11 -24 20 -29 20 -5 0 -15 2 -23 5 -7 2
-27 -2 -44 -9z"/>
<path d="M5189 4471 c-18 -14 -23 -31 -27 -79 l-4 -61 -42 -6 c-54 -9 -86 -39
-86 -81 0 -46 28 -76 76 -80 21 -1 42 -3 46 -3 3 -1 8 -63 10 -138 3 -130 5
-141 31 -186 37 -63 93 -99 162 -105 30 -2 66 -1 80 2 99 25 81 156 -21 156
-29 0 -47 6 -62 23 -20 21 -22 34 -22 135 0 109 1 112 23 113 152 5 177 17
177 84 0 63 -24 79 -121 84 l-79 3 0 55 c0 44 -5 58 -25 78 -30 30 -83 33
-116 6z"/>
<path d="M3294 4436 l-34 -34 0 -306 0 -307 25 -24 c37 -38 88 -37 123 1 21
24 22 31 22 247 l1 222 42 -50 c240 -283 249 -290 304 -266 15 7 81 76 148
157 65 79 122 144 125 144 3 0 6 -95 7 -211 2 -120 7 -218 13 -229 15 -29 65
-52 95 -44 14 3 34 18 45 31 19 24 20 42 20 320 0 323 -2 338 -60 368 -39 20
-109 19 -141 -3 -14 -9 -54 -51 -89 -92 -165 -197 -194 -230 -198 -230 -2 0
-14 12 -26 27 -88 114 -233 281 -255 295 -16 12 -45 18 -79 18 -48 0 -58 -4
-88 -34z"/>
<path d="M4589 4339 c-91 -14 -165 -72 -211 -166 -29 -59 -33 -77 -32 -143 1
-89 23 -146 80 -210 86 -95 217 -122 323 -68 52 28 52 28 73 8 31 -28 88 -27
116 3 21 23 22 30 22 269 0 136 -3 254 -6 263 -4 8 -20 23 -36 31 -38 20 -84
10 -105 -22 -14 -22 -18 -23 -32 -11 -47 41 -117 58 -192 46z m114 -163 c18
-7 45 -28 60 -45 23 -28 27 -42 27 -95 0 -49 -5 -69 -21 -90 -29 -36 -70 -56
-119 -56 -85 0 -130 49 -130 140 0 77 35 131 96 150 41 12 51 12 87 -4z"/>
<path d="M5792 4336 c-135 -44 -232 -187 -219 -325 10 -111 81 -206 192 -258
52 -24 72 -28 150 -28 72 1 100 5 140 23 59 27 105 68 105 94 0 33 -28 75 -58
87 -26 11 -36 10 -73 -9 -65 -34 -144 -37 -198 -8 -59 31 -84 66 -84 120 0 94
65 153 168 153 44 0 70 -6 98 -23 49 -29 82 -28 112 3 37 36 34 86 -6 119 -17
15 -48 34 -68 42 -50 22 -204 28 -259 10z"/>
</g>
</svg>
